<?xml version='1.0' encoding='UTF-8' standalone='no'?>
<!DOCTYPE svg PUBLIC '-//W3C//DTD SVG 1.1//EN' 'http://www.w3.org/Graphics/SVG/1.1/DTD/svg11.dtd'>
<!-- Animated using aniGen version 0.8.0 UI Rewrite - http://anigen.org -->
<svg xmlns:dc="http://purl.org/dc/elements/1.1/" xmlns:cc="http://creativecommons.org/ns#" xmlns:rdf="http://www.w3.org/1999/02/22-rdf-syntax-ns#" xmlns:svg="http://www.w3.org/2000/svg" xmlns="http://www.w3.org/2000/svg" xmlns:sodipodi="http://sodipodi.sourceforge.net/DTD/sodipodi-0.dtd" xmlns:inkscape="http://www.inkscape.org/namespaces/inkscape" width="820" height="250" id="svg2" version="1.1" inkscape:version="0.91 r13725" sodipodi:docname="anigen_logo_large_center_animated.svg" inkscape:export-filename="L:\aibo\images\inkscape\anigen_logo_large_2_center.png" inkscape:export-xdpi="90" inkscape:export-ydpi="90" preserveAspectRatio="xMidYMid" viewBox="0 0 820 250" xmlns:xlink="http://www.w3.org/1999/xlink" xmlns:anigen="http://www.anigen.org/namespace">
  <defs id="defs4">
    <filter inkscape:collect="always" style="color-interpolation-filters:sRGB" id="filter4161" x="-0.072000004" width="1.144" y="-0.071999996" height="1.144">
      <feGaussianBlur inkscape:collect="always" stdDeviation="6.4180768" id="feGaussianBlur4163"></feGaussianBlur>
    </filter>
  </defs>
  <sodipodi:namedview id="base" pagecolor="#ffffff" bordercolor="#666666" borderopacity="1.0" inkscape:pageopacity="0.0" inkscape:pageshadow="2" inkscape:zoom="1" inkscape:cx="455.76482" inkscape:cy="49.14560999999998" inkscape:document-units="px" inkscape:current-layer="layer4" showgrid="false" inkscape:window-width="1920" inkscape:window-height="1017" inkscape:window-x="1272" inkscape:window-y="-8" inkscape:window-maximized="1" borderlayer="true" fit-margin-top="0" fit-margin-left="0" fit-margin-right="0" fit-margin-bottom="0"></sodipodi:namedview>
  <metadata id="metadata7">
    <rdf:rdf id="rdf:rdf7304">
      <cc:work rdf:about="" id="cc:work3882">
        <dc:format id="dc:format9938">image/svg+xml</dc:format>
        <dc:type rdf:resource="http://purl.org/dc/dcmitype/StillImage" id="dc:type3192"></dc:type>
        <dc:title id="dc:title336"></dc:title>
      </cc:work>
    </rdf:rdf>
  </metadata>
  <g inkscape:groupmode="layer" id="layer4" inkscape:label="Layer#2" style="display:inline">
    <path inkscape:connector-curvature="0" id="rect4361" d="M 104.24076,56.181968 8.5135231,192.07332 l 32.5885709,0 21.349255,-30.30215 52.064591,0 0,30.30215 28.26363,0 0,-135.891352 z m 10.27518,31.679516 0,49.282316 -34.709736,0 z" style="fill:#000000;fill-opacity:1;fill-rule:nonzero;stroke:none" sodipodi:nodetypes="ccccccccccccc"></path>
    <path style="fill:#000000;fill-opacity:1;fill-rule:nonzero;stroke:none" d="m 268.83649,56.181968 0,135.891352 -32.58857,0 -52.69819,-90.71894 0,90.71894 -28.29118,0 0,-135.891352 38.56636,0 46.7204,82.234342 0,-82.234342 z" id="path4565" inkscape:connector-curvature="0" sodipodi:nodetypes="ccccccccccc"></path>
    <path style="fill:#000000;fill-opacity:1;fill-rule:nonzero;stroke:none" d="m 278.56581,56.15077 0,135.92503 37.01273,0 c -13.68406,-19.12333 -21.74195,-42.51815 -21.74195,-67.82644 0,-25.41019 8.10851,-48.9331 21.89315,-68.09859 z" id="path4538" inkscape:connector-curvature="0" sodipodi:nodetypes="cccscc"></path>
    <path sodipodi:nodetypes="ccccccccccc" inkscape:connector-curvature="0" id="path4501" d="m 726.472,56.181968 0,135.891352 -32.58858,0 -52.69818,-90.71894 0,90.71894 -28.29118,0 0,-135.891352 38.56636,0 46.7204,82.234342 0,-82.234342 z" style="fill:#000000;fill-opacity:1;fill-rule:nonzero;stroke:none"></path>
    <path style="fill:#000000;fill-opacity:1;fill-rule:nonzero;stroke:none" d="M 505.42 56.15077 C 519.20465 75.31626 527.31316 98.83917 527.31316 124.24936 C 527.31316 149.55765 519.25527 172.95247 505.57120000000003 192.07580000000002 L 601.76197 192.07580000000002 L 601.76197 167.43088 L 539.22738 167.43088 L 539.22738 136.37526 L 601.76197 136.37526 L 601.76197 111.73035 L 539.22738 111.73035 L 539.22738 80.82592 L 601.76197 80.82592 L 601.76197 56.21124 Z" id="path4578" inkscape:connector-curvature="0" sodipodi:nodetypes="cscccccccccccc"></path>
    <path style="display:inline;fill:#008000;fill-opacity:1;fill-rule:nonzero;stroke:none" d="m 410.67317,17.042035 c -59.07198,0 -106.96794,47.89596 -106.96794,106.967955 0,59.07198 47.89596,106.96795 106.96794,106.96795 48.32765,0 89.15489,-32.04486 102.41519,-76.0526 l -40.62786,0 c -11.34063,22.62805 -34.74508,38.15637 -61.78733,38.15637 -38.15751,0 -69.07172,-30.91421 -69.07172,-69.07172 0,-38.157512 30.91421,-69.071729 69.07172,-69.071729 27.02125,0 50.39345,15.513552 61.74397,38.113023 l 40.67122,0 C 499.81539,49.064066 458.98621,17.042035 410.67317,17.042035 Z m 0,88.063195 -2e-5,18.8614 2e-5,18.8614 105.27692,0 c 1.08567,-6.11251 1.69102,-12.39397 1.69102,-18.81804 0,-6.45362 -0.59558,-12.76581 -1.69102,-18.90476 z" id="path3800" inkscape:connector-curvature="0" sodipodi:nodetypes="sssccsssccsccccscc"></path>
    <g id="g8841"><path sodipodi:nodetypes="sssccsssccsccccscc" inkscape:connector-curvature="0" d="M 410.67317 17.042035 C 351.60119000000003 17.042035 303.70523000000003 64.937995 303.70523000000003 124.00999 C 303.70523000000003 183.08197 351.60119000000003 230.97794 410.67317 230.97794 C 459.00082000000003 230.97794 499.82806000000005 198.93308 513.08836 154.92534 L 472.46049999999997 154.92534 C 461.11987 177.55339 437.71542 193.08171000000002 410.67316999999997 193.08171000000002 C 372.51565999999997 193.08171000000002 341.60145 162.16750000000002 341.60145 124.00999000000002 C 341.60145 85.85247800000002 372.51566 54.93826100000001 410.67317 54.93826100000001 C 437.69442000000004 54.93826100000001 461.06662000000006 70.45181300000002 472.41714 93.05128400000001 L 513.08836 93.05128400000001 C 499.81539 49.064066 458.98621 17.042035 410.67317 17.042035 Z M 410.67317 105.10522999999999 L 410.67315 123.96663 L 410.67317 142.82802999999998 L 515.95009 142.82802999999998 C 517.0357600000001 136.71551999999997 517.64111 130.43406 517.64111 124.00998999999999 C 517.64111 117.55636999999999 517.04553 111.24417999999999 515.95009 105.10522999999999 Z" style="display: inline; fill: rgb(0, 210, 0); fill-opacity: 1; fill-rule: nonzero; stroke: none; stroke-opacity: 1; stroke-linejoin: round; stroke-width: 10; stroke-miterlimit: 4; stroke-dasharray: none; filter: url(&quot;#filter4161&quot;); opacity: 1;" id="path4139"></path><animate attributeType="auto" attributeName="opacity" values="0;0.75;0;0" calcMode="spline" keyTimes="0;0.4;0.8;1" keySplines=".5 .5 .5 1;.5 0 .5 .5;.5 0 .5 .5" dur="5s" begin="0s" repeatCount="indefinite" additive="replace" accumulate="none" fill="freeze" id="animate6303"></animate></g>
  </g>
</svg>