<?xml version="1.0" encoding="UTF-8" standalone="no"?>
<!-- Created with Inkscape (http://www.inkscape.org/) -->

<svg
   xmlns:dc="http://purl.org/dc/elements/1.1/"
   xmlns:cc="http://creativecommons.org/ns#"
   xmlns:rdf="http://www.w3.org/1999/02/22-rdf-syntax-ns#"
   xmlns:svg="http://www.w3.org/2000/svg"
   xmlns="http://www.w3.org/2000/svg"
   xmlns:sodipodi="http://sodipodi.sourceforge.net/DTD/sodipodi-0.dtd"
   xmlns:inkscape="http://www.inkscape.org/namespaces/inkscape"
   width="820"
   height="250"
   id="svg2"
   version="1.1"
   inkscape:version="0.91 r13725"
   sodipodi:docname="anigen_logo_large_center.svg"
   inkscape:export-filename="L:\aibo\images\inkscape\anigen_logo_large_2_center.png"
   inkscape:export-xdpi="90"
   inkscape:export-ydpi="90">
  <defs
     id="defs4" />
  <sodipodi:namedview
     id="base"
     pagecolor="#ffffff"
     bordercolor="#666666"
     borderopacity="1.0"
     inkscape:pageopacity="0.0"
     inkscape:pageshadow="2"
     inkscape:zoom="0.7071068"
     inkscape:cx="306.99578"
     inkscape:cy="-1.6351942"
     inkscape:document-units="px"
     inkscape:current-layer="layer4"
     showgrid="false"
     inkscape:window-width="1920"
     inkscape:window-height="1017"
     inkscape:window-x="1072"
     inkscape:window-y="-8"
     inkscape:window-maximized="1"
     borderlayer="true"
     fit-margin-top="0"
     fit-margin-left="0"
     fit-margin-right="0"
     fit-margin-bottom="0" />
  <metadata
     id="metadata7">
    <rdf:RDF>
      <cc:Work
         rdf:about="">
        <dc:format>image/svg+xml</dc:format>
        <dc:type
           rdf:resource="http://purl.org/dc/dcmitype/StillImage" />
        <dc:title />
      </cc:Work>
    </rdf:RDF>
  </metadata>
  <g
     inkscape:groupmode="layer"
     id="layer4"
     inkscape:label="Layer#2"
     style="display:inline">
    <path
       inkscape:connector-curvature="0"
       id="rect4361"
       d="M 104.24076,56.181968 8.5135231,192.07332 l 32.5885709,0 21.349255,-30.30215 52.064591,0 0,30.30215 28.26363,0 0,-135.891352 z m 10.27518,31.679516 0,49.282316 -34.709736,0 z"
       style="fill:#000000;fill-opacity:1;fill-rule:nonzero;stroke:none"
       sodipodi:nodetypes="ccccccccccccc" />
    <path
       style="fill:#000000;fill-opacity:1;fill-rule:nonzero;stroke:none"
       d="m 268.83649,56.181968 0,135.891352 -32.58857,0 -52.69819,-90.71894 0,90.71894 -28.29118,0 0,-135.891352 38.56636,0 46.7204,82.234342 0,-82.234342 z"
       id="path4565"
       inkscape:connector-curvature="0"
       sodipodi:nodetypes="ccccccccccc" />
    <path
       style="fill:#000000;fill-opacity:1;fill-rule:nonzero;stroke:none"
       d="m 278.56581,56.15077 0,135.92503 37.01273,0 c -13.68406,-19.12333 -21.74195,-42.51815 -21.74195,-67.82644 0,-25.41019 8.10851,-48.9331 21.89315,-68.09859 z"
       id="path4538"
       inkscape:connector-curvature="0"
       sodipodi:nodetypes="cccscc" />
    <path
       sodipodi:nodetypes="ccccccccccc"
       inkscape:connector-curvature="0"
       id="path4501"
       d="m 726.472,56.181968 0,135.891352 -32.58858,0 -52.69818,-90.71894 0,90.71894 -28.29118,0 0,-135.891352 38.56636,0 46.7204,82.234342 0,-82.234342 z"
       style="fill:#000000;fill-opacity:1;fill-rule:nonzero;stroke:none" />
    <path
       style="fill:#000000;fill-opacity:1;fill-rule:nonzero;stroke:none"
       d="m 505.42,56.15077 c 13.78465,19.16549 21.89316,42.6884 21.89316,68.09859 0,25.30829 -8.05789,48.70311 -21.74196,67.82644 l 96.19077,0 0,-24.64492 -62.53459,0 0,-31.05562 62.53459,0 0,-24.64491 -62.53459,0 0,-30.90443 62.53459,0 0,-24.61468 z"
       id="path4578"
       inkscape:connector-curvature="0"
       sodipodi:nodetypes="cscccccccccccc" />
    <path
       style="display:inline;fill:#008000;fill-opacity:1;fill-rule:nonzero;stroke:none"
       d="m 410.67317,17.042035 c -59.07198,0 -106.96794,47.89596 -106.96794,106.967955 0,59.07198 47.89596,106.96795 106.96794,106.96795 48.32765,0 89.15489,-32.04486 102.41519,-76.0526 l -40.62786,0 c -11.34063,22.62805 -34.74508,38.15637 -61.78733,38.15637 -38.15751,0 -69.07172,-30.91421 -69.07172,-69.07172 0,-38.157512 30.91421,-69.071729 69.07172,-69.071729 27.02125,0 50.39345,15.513552 61.74397,38.113023 l 40.67122,0 C 499.81539,49.064066 458.98621,17.042035 410.67317,17.042035 Z m 0,88.063195 -2e-5,18.8614 2e-5,18.8614 105.27692,0 c 1.08567,-6.11251 1.69102,-12.39397 1.69102,-18.81804 0,-6.45362 -0.59558,-12.76581 -1.69102,-18.90476 z"
       id="path3800"
       inkscape:connector-curvature="0"
       sodipodi:nodetypes="sssccsssccsccccscc" />
  </g>
</svg>
