<?xml version="1.0" standalone="no"?>
<!DOCTYPE svg PUBLIC "-//W3C//DTD SVG 20010904//EN"
 "http://www.w3.org/TR/2001/REC-SVG-20010904/DTD/svg10.dtd">
<svg version="1.0" xmlns="http://www.w3.org/2000/svg"
 width="16.000000pt" height="16.000000pt" viewBox="0 0 16.000000 16.000000"
 preserveAspectRatio="xMidYMid meet">
<metadata>
Created by potrace 1.11, written by Peter Selinger 2001-2013
</metadata>
<g transform="translate(0.000000,16.000000) scale(0.002286,-0.002286)"
fill="#000000" stroke="none">
<path d="M3299 6776 c-2 -2 -42 -6 -89 -10 -97 -8 -98 -8 -240 -30 -58 -9
-123 -22 -145 -27 -22 -6 -49 -13 -60 -15 -34 -6 -219 -55 -240 -64 -11 -4
-63 -23 -115 -41 -364 -125 -721 -329 -1039 -594 -243 -202 -531 -543 -677
-800 -6 -11 -29 -52 -51 -90 -111 -193 -259 -549 -299 -720 -6 -23 -7 -27 -22
-80 -15 -53 -68 -326 -76 -390 -18 -142 -21 -208 -21 -410 0 -197 7 -332 20
-405 2 -14 6 -43 9 -65 2 -22 7 -51 10 -65 3 -14 7 -38 10 -55 6 -40 46 -216
51 -225 2 -3 6 -19 9 -34 22 -124 151 -457 251 -651 401 -779 1047 -1332 1895
-1620 140 -48 442 -118 560 -131 25 -3 51 -7 58 -9 74 -26 749 -25 792 0 3 2
28 6 55 9 346 46 782 196 1113 383 52 29 95 53 97 53 9 0 254 169 337 232 172
132 350 299 488 458 36 41 67 77 70 80 86 86 318 446 409 635 35 72 131 299
131 309 0 2 -214 2 -475 2 l-476 -1 -41 -75 c-168 -304 -430 -588 -740 -800
-416 -286 -882 -434 -1368 -434 -93 0 -300 13 -310 19 -3 2 -23 6 -45 9 -92
14 -115 19 -210 43 -940 237 -1627 977 -1794 1933 -51 290 -47 588 10 860 11
52 22 103 24 114 25 115 131 402 185 501 9 17 29 55 45 85 16 30 61 105 101
165 311 478 789 827 1355 990 31 8 65 17 75 20 104 23 167 35 209 41 28 3 52
8 55 9 10 6 185 18 275 19 112 2 387 -18 405 -29 3 -2 26 -6 50 -10 25 -3 88
-17 140 -30 369 -94 728 -280 1022 -532 90 -77 257 -252 313 -328 17 -22 33
-42 36 -45 8 -7 139 -199 139 -204 0 -3 17 -33 38 -69 l37 -64 473 1 c331 0
471 3 468 10 -2 6 -22 57 -45 113 -331 828 -1072 1536 -1946 1859 -231 86
-522 159 -714 180 -30 3 -64 8 -75 11 -25 6 -501 15 -507 9z"/>
<path d="M3500 3500 l0 -437 1625 0 1625 0 1 26 c0 14 2 35 4 46 19 99 27 495
13 625 -4 30 -10 82 -13 116 l-8 61 -1623 0 -1624 0 0 -437z"/>
</g>
</svg>
